<svg xmlns="http://www.w3.org/2000/svg" viewBox="0 0 131.14 32.62"><defs><style>.cls-1{fill:#124191;}</style></defs><g id="Layer_2" data-name="Layer 2"><g id="Text"><path class="cls-1" d="M49.36,1.61V30.93A1.27,1.27,0,0,1,48.77,32a2.67,2.67,0,0,1-1.52.41H40.44c-1.27,0-1.91-.5-1.91-1.5V1.66c0-1,.66-1.51,2-1.51h6.94c1.27,0,1.91.49,1.91,1.46Z"/><path class="cls-1" d="M37,26.82v3.53c0,.72-.36,1.94-2.75,1.94H5.37a6.89,6.89,0,0,1-3.95-.9A3.58,3.58,0,0,1,0,28.25a5.65,5.65,0,0,1,2.38-4.4L22.27,7.63H3.33C1,7.63.77,6.14.77,5.51V2.37A2,2,0,0,1,1.55.75,2.93,2.93,0,0,1,3.45.16H30a10.86,10.86,0,0,1,5,.91A3.68,3.68,0,0,1,37,4.59c0,1.89-1,3.65-2.88,5.24-5.32,4.51-10.73,8.5-15.09,11.7-1.57,1.16-3.08,2.27-4.44,3.29H34.3a3.19,3.19,0,0,1,1.82.49A1.75,1.75,0,0,1,37,26.82Z"/><path class="cls-1" d="M90.33,1.88V28.6a3.35,3.35,0,0,1-1.65,3.28,9.89,9.89,0,0,1-4.49.72H81.81a11.27,11.27,0,0,1-4.92-.7,8.43,8.43,0,0,1-3.07-3.21q-9.58-15-12.42-20,.2,4.19.2,22.25A1.26,1.26,0,0,1,61,32a2.65,2.65,0,0,1-1.52.41H53q-1.92,0-1.92-1.5V5a4.3,4.3,0,0,1,1.69-3.73C53.9.43,55.76,0,58.36,0h3a8.49,8.49,0,0,1,4.3.8,9.16,9.16,0,0,1,2.51,2.71Q77.38,17.8,80.23,23.17,80,18.81,80,2C80,.77,80.71.15,82.21.15h6.08c1.36,0,2,.58,2,1.73Z"/><path class="cls-1" d="M130.73,29.5,120.67,4.94q-.65-1.55-1-2.22a6.26,6.26,0,0,0-1.17-1.44,4.24,4.24,0,0,0-2.11-1A17.71,17.71,0,0,0,113.07,0h-2.69q-4.22,0-5.82,1.15a8.87,8.87,0,0,0-2.78,4.07L91.6,29.6a4.15,4.15,0,0,0-.46,1.64c0,.61.35,1,1,1.1a69.41,69.41,0,0,0,8.36.28,2.51,2.51,0,0,0,1.55-.39,3,3,0,0,0,.85-1.4l1.93-5.26h12.46l2,5.26a2.8,2.8,0,0,0,.93,1.38,2.86,2.86,0,0,0,1.64.41,58.55,58.55,0,0,0,8.3-.28,1.16,1.16,0,0,0,.94-1.14,4,4,0,0,0-.41-1.7Zm-23.16-11h0q3.39-10,3.74-11.25.3,1.18,3.63,11.25Z"/></g></g></svg>